HIERARCHY
ROOT Hips
{
	OFFSET 0.000000 121.760803 0.000000
	CHANNELS 6 Xposition Yposition Zposition Xrotation Yrotation Zrotation 
	JOINT Spine
	{
		OFFSET 0.072000 7.257294 -0.789700
		CHANNELS 3 Xrotation Yrotation Zrotation
		JOINT Spine1
		{
			OFFSET 0.000000 12.508769 -0.658067
			CHANNELS 3 Xrotation Yrotation Zrotation
			JOINT Spine1_split
			{
				OFFSET 0.000000 12.508769 -0.658067
				CHANNELS 3 Xrotation Yrotation Zrotation
				JOINT Spine2
				{
					OFFSET 0.000000 12.508769 -0.658067
					CHANNELS 3 Xrotation Yrotation Zrotation
					JOINT Neck
					{
						OFFSET 0.000000 14.033295 7.520400
						CHANNELS 3 Xrotation Yrotation Zrotation
						JOINT Head
						{
							OFFSET 0.000000 8.198502 5.703100
							CHANNELS 3 Xrotation Yrotation Zrotation
							JOINT HeadTop_End
							{
								OFFSET 0.000000 17.760803 13.332701
								CHANNELS 3 Xrotation Yrotation Zrotation
								End Site
								{
									OFFSET 0.000000 0.000000 0.000000
								}
							}
						}
					}
					JOINT LeftShoulder
					{
						OFFSET 6.292450 5.785301 -0.669000
						CHANNELS 3 Xrotation Yrotation Zrotation
						JOINT LeftShoulder_split
						{
							OFFSET 6.292450 5.785301 -0.669000
							CHANNELS 3 Xrotation Yrotation Zrotation
							JOINT LeftArm
							{
								OFFSET 13.907140 -6.093903 1.965100
								CHANNELS 3 Xrotation Yrotation Zrotation
								JOINT LeftForeArm
								{
									OFFSET 34.140198 0.000000 0.000000
									CHANNELS 3 Xrotation Yrotation Zrotation
									JOINT LeftHand
									{
										OFFSET 40.960209 0.000000 0.000000
										CHANNELS 3 Xrotation Yrotation Zrotation
										JOINT LeftHandThumb1
										{
											OFFSET 10.006996 -7.170425 9.573125
											CHANNELS 3 Xrotation Yrotation Zrotation
											JOINT LeftHandThumb2
											{
												OFFSET 1.835007 -1.059448 1.059443
												CHANNELS 3 Xrotation Yrotation Zrotation
												JOINT LeftHandThumb3
												{
													OFFSET 2.112267 -1.219513 1.219518
													CHANNELS 3 Xrotation Yrotation Zrotation
													JOINT LeftHandThumb4
													{
														OFFSET 4.843811 -2.796570 2.796576
														CHANNELS 3 Xrotation Yrotation Zrotation
														End Site
														{
															OFFSET 0.000000 0.000000 0.000000
														}
													}
												}
											}
										}
										JOINT LeftHandIndex1
										{
											OFFSET 18.389847 -0.922348 4.596882
											CHANNELS 3 Xrotation Yrotation Zrotation
											JOINT LeftHandIndex2
											{
												OFFSET 4.711273 0.000000 0.000000
												CHANNELS 3 Xrotation Yrotation Zrotation
												JOINT LeftHandIndex3
												{
													OFFSET 2.886131 0.000000 0.000000
													CHANNELS 3 Xrotation Yrotation Zrotation
													JOINT LeftHandIndex4
													{
														OFFSET 6.145912 0.000000 0.000000
														CHANNELS 3 Xrotation Yrotation Zrotation
														End Site
														{
															OFFSET 0.000000 0.000000 0.000000
														}
													}
												}
											}
										}
										JOINT LeftHandMiddle1
										{
											OFFSET 18.013008 0.000000 0.000000
											CHANNELS 3 Xrotation Yrotation Zrotation
											JOINT LeftHandMiddle2
											{
												OFFSET 4.946693 0.000000 0.000000
												CHANNELS 3 Xrotation Yrotation Zrotation
												JOINT LeftHandMiddle3
												{
													OFFSET 3.342232 0.000000 0.000000
													CHANNELS 3 Xrotation Yrotation Zrotation
													JOINT LeftHandMiddle4
													{
														OFFSET 4.461754 0.000000 0.000000
														CHANNELS 3 Xrotation Yrotation Zrotation
														End Site
														{
															OFFSET 0.000000 0.000000 0.000000
														}
													}
												}
											}
										}
										JOINT LeftHandRing1
										{
											OFFSET 15.849892 -0.102921 -4.126150
											CHANNELS 3 Xrotation Yrotation Zrotation
											JOINT LeftHandRing2
											{
												OFFSET 3.527054 0.000000 0.000000
												CHANNELS 3 Xrotation Yrotation Zrotation
												JOINT LeftHandRing3
												{
													OFFSET 2.961098 0.000000 0.000000
													CHANNELS 3 Xrotation Yrotation Zrotation
													JOINT LeftHandRing4
													{
														OFFSET 4.927200 0.000000 0.000000
														CHANNELS 3 Xrotation Yrotation Zrotation
														End Site
														{
															OFFSET 0.000000 0.000000 0.000000
														}
													}
												}
											}
										}
										JOINT LeftHandPinky1
										{
											OFFSET 12.791824 -0.832031 -6.799156
											CHANNELS 3 Xrotation Yrotation Zrotation
											JOINT LeftHandPinky2
											{
												OFFSET 3.327133 0.000000 0.000000
												CHANNELS 3 Xrotation Yrotation Zrotation
												JOINT LeftHandPinky3
												{
													OFFSET 3.014900 0.000000 0.000000
													CHANNELS 3 Xrotation Yrotation Zrotation
													JOINT LeftHandPinky4
													{
														OFFSET 5.847786 0.000000 0.000000
														CHANNELS 3 Xrotation Yrotation Zrotation
														End Site
														{
															OFFSET 0.000000 0.000000 0.000000
														}
													}
												}
											}
										}
									}
								}
							}
						}
					}
					JOINT RightShoulder
					{
						OFFSET -6.292450 5.785301 -0.669000
						CHANNELS 3 Xrotation Yrotation Zrotation
						JOINT RightShoulder_split
						{
							OFFSET -6.292450 5.785301 -0.669000
							CHANNELS 3 Xrotation Yrotation Zrotation
							JOINT RightArm
							{
								OFFSET -13.907140 -6.093903 1.965100
								CHANNELS 3 Xrotation Yrotation Zrotation
								JOINT RightForeArm
								{
									OFFSET -34.140198 0.000000 0.000000
									CHANNELS 3 Xrotation Yrotation Zrotation
									JOINT RightHand
									{
										OFFSET -40.960209 0.000000 0.000000
										CHANNELS 3 Xrotation Yrotation Zrotation
										JOINT RightHandThumb1
										{
											OFFSET -10.007050 -7.170456 9.573117
											CHANNELS 3 Xrotation Yrotation Zrotation
											JOINT RightHandThumb2
											{
												OFFSET -1.835007 -1.059448 1.059443
												CHANNELS 3 Xrotation Yrotation Zrotation
												JOINT RightHandThumb3
												{
													OFFSET -2.112267 -1.219513 1.219518
													CHANNELS 3 Xrotation Yrotation Zrotation
													JOINT RightHandThumb4
													{
														OFFSET -4.843834 -2.796585 2.796590
														CHANNELS 3 Xrotation Yrotation Zrotation
														End Site
														{
															OFFSET 0.000000 0.000000 0.000000
														}
													}
												}
											}
										}
										JOINT RightHandIndex1
										{
											OFFSET -18.389870 -0.922424 4.596786
											CHANNELS 3 Xrotation Yrotation Zrotation
											JOINT RightHandIndex2
											{
												OFFSET -4.711273 0.000000 0.000000
												CHANNELS 3 Xrotation Yrotation Zrotation
												JOINT RightHandIndex3
												{
													OFFSET -2.886131 0.000000 0.000000
													CHANNELS 3 Xrotation Yrotation Zrotation
													JOINT RightHandIndex4
													{
														OFFSET -6.145920 0.000000 0.000000
														CHANNELS 3 Xrotation Yrotation Zrotation
														End Site
														{
															OFFSET 0.000000 0.000000 0.000000
														}
													}
												}
											}
										}
										JOINT RightHandMiddle1
										{
											OFFSET -18.013008 0.000000 0.000000
											CHANNELS 3 Xrotation Yrotation Zrotation
											JOINT RightHandMiddle2
											{
												OFFSET -4.946693 0.000000 0.000000
												CHANNELS 3 Xrotation Yrotation Zrotation
												JOINT RightHandMiddle3
												{
													OFFSET -3.342232 0.000000 0.000000
													CHANNELS 3 Xrotation Yrotation Zrotation
													JOINT RightHandMiddle4
													{
														OFFSET -4.461754 0.000000 0.000000
														CHANNELS 3 Xrotation Yrotation Zrotation
														End Site
														{
															OFFSET 0.000000 0.000000 0.000000
														}
													}
												}
											}
										}
										JOINT RightHandRing1
										{
											OFFSET -15.849876 -0.102936 -4.126237
											CHANNELS 3 Xrotation Yrotation Zrotation
											JOINT RightHandRing2
											{
												OFFSET -3.527054 0.000000 0.000000
												CHANNELS 3 Xrotation Yrotation Zrotation
												JOINT RightHandRing3
												{
													OFFSET -2.961098 0.000000 0.000000
													CHANNELS 3 Xrotation Yrotation Zrotation
													JOINT RightHandRing4
													{
														OFFSET -4.927200 0.000000 0.000000
														CHANNELS 3 Xrotation Yrotation Zrotation
														End Site
														{
															OFFSET 0.000000 0.000000 0.000000
														}
													}
												}
											}
										}
										JOINT RightHandPinky1
										{
											OFFSET -12.791786 -0.832077 -6.799222
											CHANNELS 3 Xrotation Yrotation Zrotation
											JOINT RightHandPinky2
											{
												OFFSET -3.327133 0.000000 0.000000
												CHANNELS 3 Xrotation Yrotation Zrotation
												JOINT RightHandPinky3
												{
													OFFSET -3.014900 0.000000 0.000000
													CHANNELS 3 Xrotation Yrotation Zrotation
													JOINT RightHandPinky4
													{
														OFFSET -5.847786 0.000000 0.000000
														CHANNELS 3 Xrotation Yrotation Zrotation
														End Site
														{
															OFFSET 0.000000 0.000000 0.000000
														}
													}
												}
											}
										}
									}
								}
							}
						}
					}
				}
			}
		}
	}
	JOINT LeftUpLeg
	{
		OFFSET 13.026900 -6.336304 -1.092800
		CHANNELS 3 Xrotation Yrotation Zrotation
		JOINT LeftLeg
		{
			OFFSET 0.524474 -46.096886 9.782700
			CHANNELS 3 Xrotation Yrotation Zrotation
			JOINT LeftFoot
			{
				OFFSET -0.524474 -53.427422 -12.948200
				CHANNELS 3 Xrotation Yrotation Zrotation
				JOINT LeftToeBase
				{
					OFFSET 0.192200 -14.009700 16.364100
					CHANNELS 3 Xrotation Yrotation Zrotation
					JOINT LeftToe_End
					{
						OFFSET -1.784700 -0.561700 9.474800
						CHANNELS 3 Xrotation Yrotation Zrotation
						End Site
						{
							OFFSET 0.000000 0.000000 0.000000
						}
					}
				}
			}
		}
	}
	JOINT RightUpLeg
	{
		OFFSET -12.883000 -6.336304 -1.092800
		CHANNELS 3 Xrotation Yrotation Zrotation
		JOINT RightLeg
		{
			OFFSET -0.524587 -46.096825 9.782800
			CHANNELS 3 Xrotation Yrotation Zrotation
			JOINT RightFoot
			{
				OFFSET 0.524587 -53.427383 -12.948300
				CHANNELS 3 Xrotation Yrotation Zrotation
				JOINT RightToeBase
				{
					OFFSET -0.192200 -14.009700 16.364100
					CHANNELS 3 Xrotation Yrotation Zrotation
					JOINT RightToe_End
					{
						OFFSET 1.784700 -0.561700 9.474800
						CHANNELS 3 Xrotation Yrotation Zrotation
						End Site
						{
							OFFSET 0.000000 0.000000 0.000000
						}
					}
				}
			}
		}
	}
}
MOTION
Frames: 5
Frame Time: 0.016667
-8.297320 89.801598 17.196177 15.013210 44.734952 -7.028852 8.094682 9.447852 0.227218 2.381663 15.779001 -0.339816 0.000000 0.000000 0.000000 2.403996 15.779105 -0.339336 24.492228 -34.509599 6.782142 -25.202423 -35.567472 -2.580322 0.000000 -0.000002 0.000001 3.133503 -2.562302 -3.584634 0.000000 0.000000 0.000000 -38.240761 7.071599 -29.653577 51.130332 1.007872 17.797846 -12.087054 -6.543441 6.823683 0.717873 -6.071435 10.111285 2.373404 19.986120 -2.038331 -3.156277 -10.994069 -3.942390 -0.000001 0.000000 -0.000000 9.749538 -2.596991 0.987092 -0.005772 0.241071 -8.886558 0.009868 0.192791 -9.303293 0.000001 0.000003 -0.000001 9.008217 3.812758 -14.287951 0.043538 0.559772 -9.088821 0.044220 0.054280 -10.038848 -0.000001 0.000000 -0.000001 10.700124 16.687192 -35.234852 0.141863 0.238690 -28.896929 0.239548 0.766381 -30.524880 -0.000000 -0.000001 0.000000 11.696312 25.216743 -38.134073 0.132802 0.212979 -32.263560 0.143920 0.181170 -33.269233 0.000000 -0.000002 -0.000000 -3.243330 8.889441 -18.987009 0.000000 0.000000 0.000000 -18.337455 -10.441373 2.113097 144.016574 167.285908 -173.359408 -12.660200 -2.965766 -5.790689 9.279837 0.855317 2.186163 1.377825 -17.419897 3.021604 -5.063651 15.450284 6.710043 -0.000000 -0.000001 -0.000001 8.977433 0.914872 -26.573703 -0.055940 -0.245619 0.029081 0.065529 -0.173587 -17.321153 -0.000001 -0.000002 0.000001 7.645426 -7.256337 -8.401645 0.102458 -0.524312 3.712650 0.060556 0.026526 0.025048 0.000001 0.000000 0.000000 6.495340 -19.152597 6.388325 0.205319 -0.177333 17.221786 0.114114 -0.673270 13.330226 0.000002 -0.000004 0.000002 8.267287 -27.952785 40.018075 0.357930 -0.175306 49.203190 0.350002 -0.160390 46.676471 -0.000003 -0.000003 0.000002 -71.065468 -8.082385 -33.380309 66.339196 -46.207924 5.653415 -0.373065 -0.784311 3.490676 -0.265524 1.013633 0.842664 0.000000 0.000001 -0.000000 17.640065 -48.985526 7.741432 40.071443 15.875352 -8.276051 -16.735251 1.327377 -10.320414 -41.052965 -9.980613 8.063484 0.000000 0.000000 0.000000 
-8.009795 89.987610 17.214172 14.623715 43.278964 -6.735834 8.123299 9.407283 0.227301 2.453882 15.715410 -0.410860 0.000000 0.000000 0.000000 2.476211 15.715471 -0.410373 24.483103 -34.297815 7.138976 -25.083013 -35.421962 -2.270462 0.000000 0.000000 0.000001 3.030141 -2.053842 -3.444216 0.000000 0.000000 0.000000 -34.893633 7.814693 -28.841413 51.215245 1.798530 17.534537 -13.743629 -6.963599 5.081475 0.690161 -6.257989 9.347856 2.373405 19.986119 -2.038331 -2.950724 -10.470231 -3.633104 0.000000 -0.000001 -0.000000 9.889676 -2.215676 0.150826 -0.005907 0.241157 -9.214053 0.009832 0.193473 -9.661955 0.000000 0.000001 -0.000002 9.055376 4.126246 -14.668279 0.045011 0.562273 -9.437243 0.047230 0.056817 -10.514600 0.000002 0.000001 0.000000 10.739768 16.814780 -35.132178 0.137657 0.239649 -28.699331 0.240167 0.766211 -30.516015 -0.000000 -0.000000 0.000000 11.760298 25.391554 -38.044318 0.132612 0.213278 -32.330366 0.143602 0.180805 -33.328161 -0.000000 0.000001 -0.000000 -3.234083 9.381074 -18.988030 0.000000 0.000000 0.000000 -20.179970 -10.125707 2.111670 144.235208 166.478730 -172.151612 -12.150579 -4.188285 -6.691118 9.388008 0.822770 2.124787 1.377819 -17.419923 3.021608 -4.907286 15.110214 6.489230 -0.000003 -0.000000 0.000001 9.067882 0.695030 -25.814423 -0.051485 -0.245690 0.064854 0.066189 -0.173236 -16.533801 0.000002 0.000000 0.000002 7.626681 -7.125907 -7.923839 0.102869 -0.525811 3.951774 0.065254 0.024143 0.731379 0.000002 0.000000 -0.000000 6.454386 -18.622968 6.787673 0.200245 -0.179032 17.261553 0.120343 -0.674329 13.794703 -0.000002 0.000002 -0.000004 7.978945 -28.024620 39.947154 0.355169 -0.175847 48.983299 0.349397 -0.160627 46.700493 -0.000001 0.000000 0.000002 -70.768512 -8.149412 -32.539697 66.217400 -45.545658 5.528850 -0.659518 -0.819823 3.430202 -0.256867 1.016453 0.842008 -0.000000 -0.000002 -0.000000 16.945093 -47.695822 6.816574 40.093268 16.482211 -8.240131 -16.452655 0.952013 -10.496995 -41.179111 -9.917056 7.983435 -0.000000 0.000000 -0.000000 
-7.688941 90.172005 17.231506 14.119419 41.656023 -6.357080 8.142819 9.363139 0.211624 2.510248 15.645948 -0.515673 0.000000 0.000000 0.000000 2.532586 15.646049 -0.515180 24.400707 -34.088245 7.703132 -24.875694 -35.237656 -1.959298 0.000001 0.000001 -0.000001 2.904507 -1.393834 -3.364782 0.000000 0.000000 0.000000 -31.432660 8.742944 -28.038410 51.355701 2.474103 17.546584 -14.985698 -7.308022 3.153645 0.630774 -6.463487 8.584041 2.373404 19.986124 -2.038329 -2.743497 -9.931747 -3.318168 0.000002 -0.000001 0.000001 10.025386 -1.815699 -0.661307 -0.006040 0.241272 -9.522518 0.009763 0.194138 -10.001427 -0.000002 0.000002 0.000001 9.103791 4.430292 -15.033813 0.046503 0.564842 -9.784031 0.050445 0.059383 -10.997545 -0.000003 -0.000001 0.000000 10.772721 16.882107 -35.025302 0.133025 0.240863 -28.494057 0.240790 0.766068 -30.504554 0.000000 -0.000001 -0.000000 11.843085 25.575870 -38.001134 0.132588 0.213756 -32.423861 0.143457 0.180494 -33.410089 0.000000 -0.000002 -0.000000 -3.144799 9.710547 -18.951719 0.000000 0.000000 0.000000 -22.316880 -9.294435 2.336560 144.310873 166.066201 -170.952094 -11.502442 -5.129969 -7.348360 9.669556 0.616297 2.214282 1.377780 -17.419897 3.021585 -4.745890 14.753890 6.259255 0.000000 -0.000001 -0.000001 9.166968 0.351636 -24.705373 -0.047716 -0.246356 0.536666 0.066986 -0.173080 -15.599006 0.000003 -0.000000 0.000001 7.623399 -7.047101 -7.050687 0.103819 -0.528129 4.369225 0.071322 0.020576 1.698008 -0.000001 0.000000 -0.000000 6.475534 -18.077224 7.614134 0.194426 -0.181330 17.489907 0.129092 -0.676374 14.525960 0.000001 0.000001 -0.000003 7.820566 -27.942569 40.350005 0.353088 -0.176022 48.987131 0.349748 -0.160758 46.999112 0.000002 -0.000002 0.000004 -70.380223 -8.175366 -31.594686 66.117338 -44.799720 5.384573 -0.981239 -0.858797 3.349348 -0.247995 1.019552 0.841887 0.000000 -0.000000 0.000000 16.210279 -46.247416 5.606713 39.925632 15.761433 -8.231019 -16.196829 1.862586 -9.991237 -41.282544 -9.830252 7.898491 0.000000 -0.000000 0.000000 
-7.338965 90.358315 17.247507 13.531806 39.944992 -5.933480 8.173500 9.288671 0.199654 2.590920 15.519602 -0.627979 0.000000 0.000000 0.000000 2.613252 15.519675 -0.627483 23.964945 -33.896487 8.093917 -24.622555 -35.034233 -1.643726 0.000001 -0.000001 0.000001 2.760274 -0.547904 -3.344332 0.000000 0.000000 0.000000 -27.854189 9.898209 -27.279946 51.514376 3.115310 17.933611 -15.929272 -7.467004 0.985765 0.527125 -6.696434 7.834172 2.373404 19.986122 -2.038330 -2.537527 -9.386640 -3.002689 -0.000000 0.000001 -0.000001 10.153728 -1.387423 -1.422228 -0.006223 0.241379 -9.803557 0.009708 0.194729 -10.309545 -0.000002 0.000000 -0.000000 9.151819 4.724944 -15.358937 0.048170 0.567338 -10.114805 0.053798 0.061900 -11.473894 0.000003 -0.000001 -0.000001 10.792660 16.881077 -34.884607 0.127719 0.242437 -28.266106 0.241174 0.765892 -30.473401 -0.000001 0.000004 0.000000 11.932715 25.749496 -37.966713 0.132608 0.214263 -32.522110 0.143309 0.180236 -33.493369 0.000000 -0.000003 -0.000000 -3.150918 9.830081 -18.703807 0.000000 0.000000 0.000000 -24.875211 -7.756475 2.628346 144.587346 165.957464 -169.821807 -10.795656 -5.821792 -7.801428 10.147169 0.218084 2.483477 1.377793 -17.419899 3.021629 -4.575796 14.374408 6.017097 -0.000000 -0.000000 -0.000001 9.294106 -0.101586 -23.043798 -0.044938 -0.247243 1.135088 0.068437 -0.173250 -14.317373 0.000004 0.000001 -0.000000 7.644647 -7.010167 -5.719511 0.105635 -0.531398 5.013999 0.078676 0.015864 2.942631 0.000001 -0.000000 -0.000001 6.566109 -17.505240 8.934410 0.187953 -0.184179 17.963235 0.140639 -0.679343 15.560006 -0.000000 -0.000000 -0.000001 7.824109 -27.677462 41.312495 0.351856 -0.175980 49.270157 0.351223 -0.160859 47.611449 -0.000004 -0.000002 0.000000 -69.909855 -8.200110 -30.617064 66.030854 -43.964948 5.239835 -1.337496 -0.900501 3.240149 -0.238824 1.022710 0.842161 0.000000 -0.000003 0.000000 15.572341 -44.828096 4.443610 39.921626 15.976116 -8.179500 -15.938614 1.943431 -9.848370 -41.355399 -9.724735 7.813922 -0.000000 0.000001 -0.000000 
-6.970140 90.541595 17.239475 12.926352 38.150503 -5.513063 8.226149 9.163191 0.197253 2.713042 15.294491 -0.723579 0.000000 0.000000 0.000000 2.735394 15.294616 -0.723101 22.780645 -33.725063 7.697569 -24.354928 -34.888289 -1.203824 0.000001 -0.000001 -0.000002 2.600919 -0.067472 -3.161116 0.000000 0.000000 0.000000 -24.095456 12.170682 -26.669082 51.661174 3.695037 19.027293 -16.704336 -7.357765 -1.447941 0.365391 -6.979439 7.100847 2.373401 19.986126 -2.038332 -2.318135 -8.795216 -2.664344 0.000001 -0.000000 -0.000000 10.272571 -0.922318 -2.118163 -0.006441 0.241467 -10.038535 0.009550 0.195283 -10.578433 0.000002 0.000001 -0.000000 9.197254 5.010862 -15.620424 0.050084 0.569866 -10.420879 0.057112 0.064224 -11.924964 -0.000001 -0.000002 -0.000004 10.793090 16.807583 -34.680449 0.121941 0.244023 -27.998006 0.241219 0.765701 -30.405977 0.000000 -0.000002 -0.000000 12.012161 25.888102 -37.896902 0.132571 0.214772 -32.600069 0.143060 0.179985 -33.551774 -0.000001 -0.000000 0.000001 -3.339999 9.640845 -18.623124 0.000000 0.000000 0.000000 -27.821731 -5.051709 3.806243 148.572242 166.161045 -170.379861 -13.204082 -6.160408 -8.098518 10.832167 -0.376961 2.952851 1.377823 -17.419909 3.021610 -4.399829 13.975735 5.764479 0.000002 -0.000000 0.000001 9.476814 -0.637916 -20.851497 -0.042871 -0.248499 2.008696 0.069291 -0.173940 -12.716554 -0.000000 -0.000002 0.000001 7.699456 -6.999453 -3.894297 0.108395 -0.535747 5.914707 0.087527 0.009900 4.509012 -0.000002 -0.000000 0.000000 6.725026 -16.895895 10.794578 0.181102 -0.187584 18.724310 0.155015 -0.683223 16.923216 0.000001 -0.000001 0.000002 8.000077 -27.205258 42.891740 0.349700 -0.175762 49.876285 0.354009 -0.160884 48.564243 -0.000003 0.000001 -0.000002 -69.410623 -8.242021 -29.629788 65.933005 -43.034170 5.090126 -1.713956 -0.943313 3.126835 -0.229287 1.026037 0.842703 0.000000 -0.000002 -0.000000 14.918106 -43.393025 3.236870 39.979546 16.201436 -8.151879 -15.701941 2.022106 -9.640974 -41.394512 -9.605604 7.733986 -0.000000 -0.000000 0.000000 
